<svg xmlns="http://www.w3.org/2000/svg" viewBox="0 0 52 65.333" height="30" width="20"><path d="M50.136 7.468H35.151c-.115-1.333-.526-3.584-1.932-5.027-.89-.91-2.016-1.374-3.355-1.374H19.197c-1.333 0-2.462.464-3.348 1.374-1.406 1.443-1.818 3.694-1.937 5.027H1.068a1.065 1.065 0 100 2.13h2.177l2.041 49.094c.042 1.834 1.183 5.306 5.235 5.306h30.156c4.052 0 5.198-3.472 5.235-5.286l2.047-49.115h2.177c.588 0 1.061-.473 1.061-1.061a1.06 1.06 0 00-1.061-1.068zM16 54.4a1.07 1.07 0 01-1.068 1.068 1.07 1.07 0 01-1.068-1.068V19.203c0-.595.48-1.068 1.068-1.068.59 0 1.068.473 1.068 1.068zm10.667 0a1.07 1.07 0 01-1.069 1.068 1.07 1.07 0 01-1.067-1.068V19.203c0-.595.48-1.068 1.067-1.068.59 0 1.069.473 1.069 1.068zm10.666 0a1.07 1.07 0 01-1.068 1.068 1.07 1.07 0 01-1.068-1.068V19.203c0-.595.48-1.068 1.068-1.068.59 0 1.068.473 1.068 1.068zM17.38 3.927c.475-.491 1.073-.724 1.817-.724h10.667c.75 0 1.344.233 1.824.724.859.88 1.203 2.42 1.322 3.541H16.057c.12-1.12.464-2.661 1.323-3.541z" fill="#c4c4c4"/></svg>