<svg xmlns="http://www.w3.org/2000/svg" height="522.667" width="522.667"><path d="M516.265 485.547l-125.65-125.651c31.145-37.975 49.916-86.615 49.916-139.63C440.53 98.665 341.864 0 220.265 0 98.563 0 0 98.667 0 220.265c0 121.599 98.563 220.266 220.265 220.266 53.016 0 101.547-18.667 139.522-49.812l125.65 125.546c8.536 8.538 22.298 8.538 30.828 0 8.538-8.426 8.538-22.292 0-30.718zm-296-88.854c-97.385 0-176.53-79.146-176.53-176.428 0-97.281 79.145-176.53 176.53-176.53 97.282 0 176.538 79.249 176.538 176.53 0 97.282-79.256 176.428-176.538 176.428z" fill="#fff"/></svg>