<svg xmlns="http://www.w3.org/2000/svg" height="21.333" width="21.333"><path d="M6.402 17.068a2.14 2.14 0 00-2.137 2.13c0 1.176.964 2.135 2.137 2.135a2.137 2.137 0 002.129-2.136c0-1.17-.958-2.129-2.13-2.129zM0 0v2.136h2.136l3.837 8.104-1.494 2.563c-.105.317-.214.744-.214 1.061 0 1.177.964 2.136 2.137 2.136h12.795v-2.136H6.828a.226.226 0 01-.213-.213v-.104l.958-1.812h7.896c.848 0 1.49-.428 1.812-1.068l3.839-6.932c.213-.214.213-.323.213-.538 0-.634-.426-1.061-1.068-1.061H4.48L3.52 0zm17.068 17.068a2.141 2.141 0 00-2.136 2.13c0 1.176.964 2.135 2.136 2.135 1.172 0 2.13-.959 2.13-2.136 0-1.17-.958-2.129-2.13-2.129z" fill="#8e36b7"/></svg>